<svg version="1.2" xmlns="http://www.w3.org/2000/svg" viewBox="0 0 16 15" width="16" height="15"><defs><clipPath clipPathUnits="userSpaceOnUse" id="cp1"><path d="m-466-647h1920v3812h-1920z"/></clipPath></defs><style>.a{fill:#fff}</style><g clip-path="url(#cp1)"><path class="a" d="m0 7c0-0.6 0.4-1 1-1h11.9l-3.7-4.4q-0.2-0.3-0.2-0.7 0-0.4 0.4-0.7 0.2-0.2 0.6-0.2c0.3 0 0.6 0.1 0.8 0.4l5 6q0 0 0.1 0.1c0 0.1 0 0.1 0 0.1q0.1 0.2 0.1 0.4 0 0.2-0.1 0.4c0 0 0 0 0 0.1q-0.1 0.1-0.1 0.1l-5 6c-0.4 0.5-1 0.5-1.4 0.2-0.5-0.4-0.5-1-0.2-1.4l3.7-4.4h-11.9c-0.6 0-1-0.4-1-1z"/></g></svg>